PathFileType	4	(X/Y/Z)	s11c0201.trc
DataRate	CameraRate	NumFrames	NumMarkers	Units	OrigDataRate	OrigDataStartFrame	OrigNumFrames
200	200	6	48	mm	200	1750	2000
Frame#	Time	racr			lacr			c7			jug			rlel			rdr			llel			ldr			s2			lic			ric			lasi			rasi			rpsi			lpsi			rgt			lgt			rth1			rth2			rth3			rth4			rlfc			rmfc			rsh1			rsh2			rsh3			rsh4			rlmal			rcal			rtoe			rmt5			lth1			lth2			lth4			lth3			llfc			lmfc			llmal			lcal			lmt5			lsh1			lsh2			lsh3			lsh4			ltoe			SBIKE			LBIKE			RBIKE			
		X1	Y1	Z1	X2	Y2	Z2	X3	Y3	Z3	X4	Y4	Z4	X5	Y5	Z5	X6	Y6	Z6	X7	Y7	Z7	X8	Y8	Z8	X9	Y9	Z9	X10	Y10	Z10	X11	Y11	Z11	X12	Y12	Z12	X13	Y13	Z13	X14	Y14	Z14	X15	Y15	Z15	X16	Y16	Z16	X17	Y17	Z17	X18	Y18	Z18	X19	Y19	Z19	X20	Y20	Z20	X21	Y21	Z21	X22	Y22	Z22	X23	Y23	Z23	X24	Y24	Z24	X25	Y25	Z25	X26	Y26	Z26	X27	Y27	Z27	X28	Y28	Z28	X29	Y29	Z29	X30	Y30	Z30	X31	Y31	Z31	X32	Y32	Z32	X33	Y33	Z33	X34	Y34	Z34	X35	Y35	Z35	X36	Y36	Z36	X37	Y37	Z37	X38	Y38	Z38	X39	Y39	Z39	X40	Y40	Z40	X41	Y41	Z41	X42	Y42	Z42	X43	Y43	Z43	X44	Y44	Z44	X45	Y45	Z45	X46	Y46	Z46	X47	Y47	Z47	X48	Y48	Z48	
1750	8.7500	437.596796	1412.500089	-93.152557	444.742099	1446.914412	-424.487285	380.472355	1530.979224	-259.311866	414.490022	1356.308652	-269.385298	552.786837	1174.198288	-11.907091	764.356153	969.097048	-84.939641	537.294650	1174.067237	-522.225304	775.999443	961.920186	-479.942733	-130.399301	1189.625783	-265.340959	83.959475	1210.091958	-469.747743	86.342213	1229.784418	-68.719572	126.592863	1141.105257	-440.695152	111.293209	1172.322299	-114.495166	-93.486797	1264.920752	-218.591559	-95.149626	1252.594480	-313.805503	60.386604	1105.527611	-37.104250	2.114897	1059.052194	-471.051012	0.000000	0.000000	-0.000000	0.000000	0.000000	-0.000000	363.566441	1030.725574	-59.753265	291.836184	1103.675053	-65.216711	471.432865	991.694912	-77.914574	477.062168	973.605773	-211.913263	395.946268	853.927898	-70.473404	362.592393	774.398725	-90.650803	295.214481	719.197573	-91.829639	383.540211	764.301439	-123.295056	203.103340	623.615939	-105.126228	137.195945	631.987131	-152.816580	379.726467	479.049840	-150.867789	306.640551	485.866423	-79.910016	90.392709	935.537968	-487.001435	153.840580	878.648651	-480.468055	185.291828	897.909048	-475.084699	181.036386	793.265055	-470.075662	251.333853	677.951351	-445.135382	267.841810	670.533722	-318.534796	115.335487	271.324511	-414.333622	58.183098	240.555025	-378.685295	243.601849	152.494054	-453.763439	202.460338	561.898464	-462.971034	203.390212	476.690807	-448.849353	161.230811	399.531626	-441.959659	235.486406	471.595425	-428.256458	344.354563	157.397561	-389.232499	-216.191331	956.332862	-256.158424	-17.848602	80.924406	-460.994991	-17.907982	80.847051	-62.063234	
1751	8.7550	437.387993	1412.342468	-93.160933	444.481015	1446.782246	-424.513099	380.315445	1530.910388	-259.381363	414.170258	1356.214327	-269.374705	552.698616	1174.211149	-11.857568	764.412351	969.109835	-84.693584	537.233646	1174.004158	-521.960816	776.021725	961.959817	-479.827482	-130.639852	1189.682810	-265.408061	83.712287	1210.119046	-469.896999	85.822759	1230.137380	-68.775560	126.334545	1141.133443	-440.954060	110.837450	1172.689675	-114.621258	-93.664505	1265.000802	-218.709329	-95.369559	1252.639440	-313.867041	60.230404	1105.892921	-37.081625	1.756301	1059.020161	-471.066070	0.000000	0.000000	-0.000000	0.000000	0.000000	-0.000000	363.648346	1032.245315	-60.055406	291.634098	1105.023813	-65.433866	471.699169	993.795164	-78.360654	477.266635	975.886378	-212.525160	397.759188	855.255212	-70.697248	365.285813	775.377923	-90.793371	298.556200	719.358705	-91.921030	386.412218	765.433801	-123.429418	207.557376	622.653436	-105.101776	141.655746	630.446348	-152.747128	385.439078	479.501982	-150.951778	312.206389	485.703503	-79.960681	89.871758	935.511716	-486.948808	153.254668	878.560601	-480.497518	184.707306	897.728844	-475.074997	180.318303	793.132435	-470.054595	250.317391	677.698909	-445.208317	267.199901	670.247094	-318.445863	110.216505	272.445337	-414.049026	52.915282	241.866186	-378.369657	237.932259	152.975799	-453.641899	200.390324	562.076477	-462.978761	200.529607	476.910960	-448.712711	157.612006	400.097612	-441.775276	232.533156	471.474746	-428.178130	338.717468	157.445436	-389.289087	-216.204866	956.319125	-256.141259	-17.809730	80.840001	-461.068261	-17.902941	80.830598	-62.057479	
1752	8.7600	437.185158	1412.228228	-93.228515	444.240140	1446.684070	-424.522429	380.147935	1530.841087	-259.443574	413.848212	1356.118819	-269.316302	552.634183	1174.231560	-11.849948	764.478956	969.148870	-84.464699	537.171230	1173.960131	-521.693614	776.046071	961.996003	-479.738909	-130.871305	1189.813583	-265.543079	83.472352	1210.176111	-470.062145	85.400958	1230.532680	-68.800991	126.043265	1141.113481	-441.155414	110.420789	1173.044697	-114.681687	-93.893452	1265.060957	-218.790044	-95.581387	1252.657087	-313.956071	60.057057	1106.222149	-37.080576	1.366007	1059.027909	-471.049030	0.000000	0.000000	-0.000000	0.000000	0.000000	-0.000000	363.697475	1033.583995	-60.329883	291.544971	1106.198245	-65.363071	471.810166	995.721513	-78.938515	477.488873	977.895968	-212.960467	399.546728	856.394804	-70.969498	368.031295	776.126856	-90.911369	301.925424	719.300546	-92.009818	389.293961	766.290597	-123.616540	212.029271	621.408238	-105.071075	146.125538	628.698574	-152.665579	391.043343	479.717684	-151.005106	317.759310	485.354200	-79.978409	89.413684	935.525285	-486.924838	152.748423	878.491681	-480.482869	184.246957	897.656196	-475.189192	179.762678	793.069953	-470.103854	249.412251	677.515855	-445.338876	266.927123	670.133042	-318.347821	105.245818	273.740779	-413.784301	47.487271	243.280542	-378.154376	232.290207	153.712074	-453.512005	198.487188	562.287467	-462.999756	197.769158	477.071281	-448.636246	154.089380	400.730337	-441.637368	229.686344	471.390329	-428.042968	333.168254	157.801935	-389.277707	-216.208717	956.286822	-256.164295	-17.808667	80.840070	-461.074750	-17.904622	80.845481	-62.053625	
1753	8.7650	436.970941	1412.163820	-93.287932	444.016811	1446.562173	-424.507181	380.017703	1530.794153	-259.534095	413.493638	1356.043688	-269.406645	552.558903	1174.297285	-11.871149	764.518714	969.196408	-84.284873	537.085408	1173.891118	-521.414845	776.047484	962.009794	-479.630338	-131.078075	1189.806923	-265.672802	83.080292	1210.142531	-470.065295	84.946926	1230.779395	-68.797697	125.716833	1141.136314	-441.372551	110.033123	1173.371685	-114.729724	-94.097337	1265.042543	-218.893748	-95.842844	1252.696157	-314.026549	59.862651	1106.522957	-37.109016	0.973491	1058.982574	-470.989934	0.000000	0.000000	-0.000000	0.000000	0.000000	-0.000000	363.711255	1034.727709	-60.610522	291.250203	1107.159308	-65.617310	471.947782	997.393162	-79.315923	477.581231	979.851078	-213.406746	401.148737	857.405438	-71.238552	370.594026	776.660713	-91.044187	305.092702	719.223519	-92.082929	392.186172	767.024782	-123.563876	216.542724	619.944384	-105.030813	150.730357	626.811919	-152.336853	396.602040	479.599732	-151.014748	323.208962	484.803856	-79.984477	88.997817	935.544257	-486.854843	152.321916	878.542085	-480.540731	183.825723	897.676331	-475.355268	179.314542	793.085308	-470.148112	248.742710	677.436960	-445.477530	266.998826	670.164442	-318.339461	100.235118	275.205504	-413.582617	42.426815	244.821790	-377.879981	226.759035	154.688218	-453.472877	196.669225	562.603641	-462.977830	195.097661	477.530693	-448.553984	150.667004	401.641886	-441.531423	226.996665	471.520438	-427.957257	327.655840	158.298829	-389.257397	-216.214623	956.281985	-256.186880	-17.845968	80.926845	-461.009434	-17.838879	80.846785	-62.138012	
1754	8.7700	436.746752	1412.085746	-93.345460	443.762702	1446.431280	-424.480693	379.838785	1530.716148	-259.607622	413.085328	1355.971019	-269.490633	552.526955	1174.339163	-11.978233	764.530587	969.253635	-84.201021	536.973332	1173.811964	-521.211889	776.038496	962.008027	-479.574825	-131.294729	1189.772980	-265.784366	82.707903	1210.219751	-470.189676	84.538200	1230.966555	-68.753526	125.350113	1141.164971	-441.600001	109.627684	1173.732496	-114.738433	-94.332625	1265.093440	-218.968670	-96.087622	1252.711609	-314.114686	59.627175	1106.726532	-37.193142	0.603239	1059.029729	-471.015707	0.000000	0.000000	-0.000000	0.000000	0.000000	-0.000000	363.679549	1035.747162	-60.925314	291.044730	1107.885989	-65.618354	472.048474	998.700575	-79.668550	478.589036	981.483324	-212.755591	402.740740	858.142780	-71.446319	373.123668	776.964966	-91.119328	308.374364	718.705156	-92.189784	394.809130	767.510897	-123.572852	220.921145	618.414369	-104.953613	155.205194	624.664150	-152.373984	402.057098	479.307618	-151.087644	328.642622	483.949952	-80.018528	88.680340	935.647445	-486.843571	152.006237	878.614179	-480.628332	183.513359	897.815209	-475.548944	179.008686	793.204451	-470.202102	248.164495	677.432108	-445.650844	263.769328	670.443532	-319.367470	95.375847	276.881658	-413.425799	37.502168	246.624068	-377.678984	221.323827	155.787653	-453.392897	194.960665	563.138393	-463.025645	192.541733	478.003825	-448.512292	147.314754	402.625123	-441.406344	224.347269	471.738205	-427.904521	322.230272	159.070991	-389.232650	-216.255775	956.274490	-256.201358	-17.851321	80.922903	-460.997102	-17.838294	80.861044	-62.138099	
1755	8.7750	436.428798	1412.065882	-93.481476	443.503056	1446.300548	-424.442704	379.660376	1530.647020	-259.655069	412.698247	1355.868077	-269.574472	552.471509	1174.402868	-12.128853	764.538142	969.333843	-84.162194	536.823884	1173.701810	-520.970404	776.008983	961.992719	-479.552987	-131.527313	1189.764107	-265.882491	82.346837	1210.300618	-470.355105	84.099481	1231.126809	-68.797299	124.982164	1141.177835	-441.768580	109.197714	1174.012958	-114.791277	-94.663010	1265.122314	-219.131370	-96.324001	1252.734630	-314.202650	59.371825	1106.826819	-37.282564	0.214308	1059.027524	-470.981737	0.000000	0.000000	-0.000000	0.000000	0.000000	-0.000000	363.578217	1036.515485	-61.249932	290.853595	1108.660684	-65.680093	472.190512	999.936603	-79.867363	478.512382	982.908783	-213.908840	404.206294	858.644318	-71.679607	375.606703	777.134975	-91.184409	311.547918	718.038817	-92.158731	397.512499	767.861120	-123.517154	225.410381	616.638620	-104.987658	159.440945	622.543978	-152.226298	407.377310	478.933991	-151.087586	334.011668	482.928166	-80.008370	88.431272	935.791193	-486.840327	151.763265	878.737360	-480.697846	183.299442	897.954948	-475.740681	178.837171	793.360137	-470.297398	247.774815	677.519513	-445.832114	264.422279	670.358251	-319.335365	90.561871	278.679870	-413.281694	32.460952	248.486348	-377.535943	215.957144	156.982713	-453.240345	193.411375	563.650107	-463.081826	190.093113	478.610753	-448.495773	144.069832	403.719162	-441.292738	221.861405	472.070315	-427.935713	316.937855	159.908828	-389.125829	-216.300797	956.295043	-256.206209	-17.850341	80.913355	-460.986909	-17.855575	80.857601	-62.136481	
